<svg version="1.1" xmlns="http://www.w3.org/2000/svg" viewBox="0 0 93 101" preserveAspectRatio="xMinYMin meet">
	<g>
		<path d="M33.522,54.16c0-5.891-3.078-12.046-9.452-12.046c-6.331,0-9.496,5.847-9.496,12.354c0,6.33,3.429,12.002,9.452,12.002
			C30.092,66.47,33.522,60.886,33.522,54.16"/>
		<path d="M42.143,98.083l-2.77,0.264c0.968-2.594,2.155-7.297,2.639-10.507l4.308-0.44C45.308,91.137,43.374,96.017,42.143,98.083
			 M32.912,97.82l-2.419,0.308c0.923-2.594,2.111-7.167,2.551-10.288l4-0.44C36.033,91.093,34.143,95.798,32.912,97.82
			 M92.639,18.596v-2.242c-4.742,0-5.41-1.715-5.41-3.253c0-1.231,0.267-2.462,0.533-3.693c0.268-1.231,0.535-2.418,0.535-3.649
			C88.297,1.714,84.223,0,78.546,0H77.21v2.417h1.202c3.875,0.045,5.277,1.408,5.277,3.782c0,1.011-0.267,2.066-0.467,3.121
			c-0.268,1.099-0.535,2.154-0.535,3.341c0,2.813,1.87,4.221,4.809,4.748v0.088c-2.939,0.483-4.809,1.978-4.809,4.792
			c0,1.187,0.267,2.286,0.535,3.341c0.2,1.099,0.467,2.11,0.467,3.166c0,2.461-1.603,3.78-5.344,3.824h-0.533v-0.026H12.431v0.026
			h-0.407c-3.162,0-4.46-1.363-4.46-3.824c0-1.056,0.17-2.067,0.395-3.166c0.227-1.055,0.395-2.154,0.395-3.341
			c0.057-2.814-1.524-4.309-4.064-4.792v-0.088c2.54-0.527,4.121-1.935,4.064-4.748c0-1.187-0.168-2.242-0.395-3.341
			C7.734,8.265,7.564,7.21,7.564,6.199c0-2.374,1.129-3.782,4.46-3.782h1.015V0h-1.185C7.056,0,3.669,1.714,3.669,5.759
			c0,1.231,0.226,2.418,0.452,3.649c0.226,1.231,0.452,2.462,0.452,3.693c0,1.538-0.565,3.253-4.573,3.253v2.242
			c4.008,0,4.573,1.89,4.573,3.254c0,1.187-0.226,2.373-0.452,3.56c-0.226,1.187-0.452,2.418-0.452,3.605
			c0,4.441,3.5,6.023,8.185,6.023h0.577v11.038c2.351-4.451,6.641-7.083,11.814-7.083c8.09,0,13.321,6.199,13.321,14.991
			c0,10.199-6.198,15.607-13.76,15.607c-5.042,0-9.114-2.521-11.375-6.711v38.147h65.381V75.484c-2.484,1.349-5.335,2.04-8.361,2.04
			c-9.854,0-16.774-7.639-16.774-18.933c0-11.847,7.363-19.598,17.327-19.598c2.924,0,5.549,0.645,7.808,1.824v-5.779h0.801
			c5.476,0,9.684-1.582,9.684-6.023c0-1.187-0.267-2.418-0.535-3.605c-0.266-1.187-0.533-2.373-0.533-3.56
			C87.229,20.486,87.897,18.596,92.639,18.596"/>
		<path d="M69.783,42.923c-7.972,0-11.958,7.363-11.958,15.557c0,7.972,4.318,15.113,11.903,15.113c3.369,0,6.092-1.369,8.084-3.625
			V46.534C75.877,44.338,73.209,42.923,69.783,42.923"/>
	</g>
</svg>
